<?xml version="1.0" standalone="no"?>
<!DOCTYPE svg PUBLIC "-//W3C//DTD SVG 20010904//EN"
 "http://www.w3.org/TR/2001/REC-SVG-20010904/DTD/svg10.dtd">
<svg version="1.0" xmlns="http://www.w3.org/2000/svg"
 width="1200.000000pt" height="900.000000pt" viewBox="0 0 1200.000000 900.000000"
 preserveAspectRatio="xMidYMid meet">

<g transform="translate(0.000000,900.000000) scale(0.100000,-0.100000)"
fill="#000000" stroke="none">
<path d="M3855 7087 c-64 -30 -108 -81 -125 -143 -7 -27 -26 -65 -41 -85 -39
-50 -49 -81 -49 -153 0 -110 69 -208 192 -273 50 -27 59 -28 188 -28 117 0
143 -3 197 -23 33 -13 71 -34 82 -46 12 -12 80 -139 152 -282 72 -142 134
-263 139 -269 27 -35 540 -1170 540 -1194 0 -5 -36 -58 -80 -118 -45 -59 -86
-126 -92 -148 -6 -22 -27 -64 -47 -93 -29 -44 -36 -64 -39 -116 -9 -133 79
-216 227 -216 96 0 97 -1 81 -105 -23 -146 12 -256 116 -363 30 -31 54 -57 54
-58 0 -9 -215 -59 -625 -144 -205 -43 -275 -50 -275 -25 0 8 -13 30 -30 48
-34 40 -102 63 -153 53 -62 -12 -156 -66 -217 -127 -33 -32 -65 -59 -70 -59
-6 0 -10 -6 -10 -13 0 -7 -20 -51 -44 -99 -78 -151 -74 -265 13 -349 56 -54
113 -73 203 -67 106 7 256 84 299 155 l23 37 11 -45 c16 -63 32 -87 68 -109
65 -40 155 -14 226 64 29 31 47 33 55 8 4 -11 18 -29 31 -42 36 -34 84 -32
139 7 l44 31 5 -40 c7 -50 29 -75 80 -89 78 -21 177 12 256 86 56 52 81 98 81
147 1 81 44 74 95 -16 19 -35 35 -70 35 -78 0 -9 -15 -27 -34 -42 -43 -33 -73
-104 -57 -135 17 -30 67 -27 122 7 76 49 152 141 212 260 60 117 68 127 108
137 21 5 35 -1 75 -36 27 -23 50 -45 52 -50 2 -5 -12 -24 -31 -43 -58 -58 -58
-125 0 -163 43 -28 137 -23 206 11 51 25 157 124 157 147 0 20 26 6 45 -24 13
-20 30 -33 45 -35 31 -4 111 48 147 94 32 43 49 43 67 0 37 -90 132 -102 201
-26 19 21 19 23 2 88 -22 87 -23 225 -1 246 17 18 64 22 64 6 0 -6 -10 -30
-22 -53 -14 -28 -23 -67 -26 -117 -3 -66 -1 -79 20 -109 32 -49 106 -84 184
-89 76 -5 140 15 206 63 121 89 150 267 60 367 -26 29 -32 42 -23 47 19 12
220 55 227 49 3 -3 -9 -31 -26 -61 -57 -102 -113 -404 -96 -519 9 -60 38 -98
75 -98 38 0 59 26 85 110 13 39 27 75 32 80 5 5 25 4 49 -2 162 -43 328 198
271 394 -11 39 -26 65 -51 87 -61 53 -109 53 -169 1 -18 -17 -38 -30 -44 -30
-15 0 -45 51 -35 60 20 19 639 138 958 185 235 34 249 37 253 57 5 26 -25 35
-176 55 -78 9 -142 20 -142 24 0 8 79 22 240 44 187 25 180 23 180 50 0 17 -7
26 -22 30 -120 28 -622 73 -825 75 l-51 0 -7 59 c-6 48 -3 65 14 99 12 23 21
52 21 65 0 13 13 36 31 53 49 47 62 80 56 146 -4 45 -12 66 -37 98 -66 83
-141 99 -490 101 -113 1 -245 4 -295 8 -79 5 -63 7 130 14 121 4 264 7 319 7
95 0 103 2 210 47 127 53 171 89 182 149 4 24 21 54 44 80 32 35 41 55 60 140
80 355 128 545 182 714 43 138 68 240 68 284 0 34 -7 46 -44 82 -57 54 -129
80 -256 94 -56 5 -105 12 -109 14 -7 5 -376 81 -466 96 -27 5 -113 20 -190 34
-77 14 -192 35 -255 46 -63 12 -137 25 -165 31 -57 10 -488 80 -645 104 -58 9
-132 20 -165 25 -33 6 -132 19 -220 30 -88 12 -194 25 -235 31 -239 32 -358
46 -491 59 -58 5 -119 16 -135 24 -39 20 -175 37 -307 40 l-107 3 -35 59 c-59
99 -95 124 -273 190 -148 55 -160 62 -212 115 -31 31 -81 68 -115 85 -52 25
-73 29 -160 32 -89 3 -106 0 -150 -21z m272 -98 c32 -17 59 -41 81 -74 32 -48
38 -52 140 -88 226 -80 262 -97 288 -138 58 -92 320 -614 409 -814 145 -325
279 -636 325 -750 27 -66 74 -178 104 -250 56 -130 66 -178 45 -218 -7 -11
-45 -72 -86 -135 -41 -62 -76 -119 -79 -126 -4 -10 256 -14 1304 -20 720 -4
1326 -11 1346 -16 55 -12 86 -45 86 -91 0 -29 -6 -42 -26 -58 l-27 -21 -1444
0 c-1595 0 -1490 -4 -1512 63 -7 19 -8 43 -5 53 8 22 108 186 196 320 l59 92
-35 83 c-19 46 -69 165 -111 264 -42 99 -85 203 -95 230 -36 97 -323 744 -385
865 -130 257 -219 427 -228 437 -7 6 -74 34 -150 62 -132 48 -139 49 -172 35
-40 -16 -132 -19 -170 -4 -76 29 -134 106 -137 185 -3 55 21 91 83 123 56 29
127 26 196 -9z m907 -469 c33 -5 115 -14 181 -20 123 -11 208 -20 375 -40 52
-6 133 -16 180 -21 86 -10 169 -21 303 -39 163 -21 213 -29 242 -34 30 -6 120
-20 325 -51 279 -42 415 -64 475 -75 28 -5 102 -19 165 -30 63 -12 135 -25
160 -30 43 -9 112 -21 302 -55 212 -37 321 -57 418 -76 58 -12 135 -27 172
-34 81 -17 124 -38 133 -66 8 -25 1 -71 -25 -159 -11 -36 -40 -159 -64 -275
-43 -199 -53 -253 -92 -490 -17 -107 -32 -140 -67 -155 -12 -5 -66 -27 -119
-50 l-97 -40 -208 -5 c-114 -2 -453 -7 -753 -10 -300 -3 -660 -10 -800 -15
-140 -5 -291 -10 -335 -10 l-81 0 -154 91 c-85 50 -162 98 -171 107 -9 10 -32
55 -52 102 -63 150 -263 612 -310 715 -25 55 -71 156 -102 225 -31 69 -95 202
-142 296 -94 185 -97 204 -46 236 32 20 96 23 187 8z m2742 -2375 c105 -46
174 -136 188 -243 10 -80 -13 -140 -75 -196 -68 -61 -127 -79 -238 -74 -75 3
-94 8 -144 37 -140 80 -196 251 -123 376 71 119 246 164 392 100z m-1963 -5
c97 -49 168 -153 169 -248 1 -95 -17 -140 -81 -204 -69 -69 -137 -93 -238 -85
-166 13 -276 131 -277 297 -1 64 3 82 26 121 33 56 76 94 143 126 68 33 187
30 258 -7z m1330 -300 c-2 -35 -8 -59 -18 -66 -8 -6 -63 -19 -122 -28 -139
-23 -412 -81 -683 -146 -259 -62 -328 -75 -336 -67 -3 3 5 26 20 51 14 26 38
66 52 91 30 53 54 134 54 188 l0 37 518 -2 517 -3 -2 -55z m-359 -404 c47 -20
66 -51 66 -111 0 -39 -7 -62 -28 -96 -42 -65 -120 -125 -139 -105 -3 3 7 43
21 88 19 57 26 99 24 133 l-3 50 -22 -46 c-29 -61 -62 -194 -70 -277 l-6 -66
55 56 c65 67 113 98 151 98 38 0 46 -27 40 -131 -4 -68 -1 -95 16 -143 l21
-58 -23 -19 c-37 -31 -93 -45 -122 -29 -32 17 -55 68 -55 121 l0 43 -79 -85
c-44 -48 -94 -92 -111 -99 -28 -12 -34 -11 -51 7 -49 49 -44 172 16 349 61
183 126 288 200 320 39 17 58 17 99 0z m1139 -146 c86 -76 75 -272 -23 -383
-70 -79 -161 -101 -217 -53 l-28 24 -23 -85 c-35 -133 -61 -171 -99 -147 -32
20 -43 57 -43 150 0 237 86 504 164 504 34 0 46 -19 46 -75 l0 -50 30 51 c56
99 127 123 193 64z m-3546 -20 c49 -30 66 -63 60 -116 -6 -55 -29 -89 -86
-128 -42 -28 -131 -48 -131 -29 0 5 11 24 24 41 29 40 49 107 44 153 l-3 34
-57 -54 c-55 -51 -97 -120 -112 -183 -7 -33 -21 -31 154 -18 141 10 158 5 136
-39 -38 -71 -98 -100 -211 -101 -81 0 -91 -7 -71 -53 28 -68 90 -58 231 34 42
27 78 49 82 49 13 0 -6 -103 -24 -128 -24 -32 -118 -85 -202 -113 -108 -36
-211 -12 -279 65 -90 103 -33 317 127 477 91 90 162 129 235 129 33 0 62 -7
83 -20z m2933 6 c0 -8 -14 -17 -32 -21 -91 -19 -156 -107 -166 -220 -7 -92 27
-145 91 -145 31 0 77 51 78 88 3 81 -6 108 -54 159 -26 28 -28 34 -17 48 36
44 117 58 159 29 32 -23 61 -90 61 -145 0 -107 -61 -197 -169 -247 -111 -52
-257 -24 -306 58 -27 47 -27 139 1 200 54 117 185 210 296 210 43 0 58 -4 58
-14z m-954 -100 c25 -25 34 -43 34 -67 0 -63 -63 -134 -112 -127 -21 3 -23 8
-23 70 0 37 -5 72 -11 78 -27 27 -80 -80 -63 -127 8 -22 45 -37 118 -49 54 -8
101 -50 101 -89 0 -69 -101 -180 -191 -210 -67 -23 -152 -16 -181 13 -38 38
-21 100 40 146 31 23 89 27 83 6 -11 -38 -12 -93 -3 -102 16 -16 72 44 72 76
0 31 -27 50 -98 66 -29 7 -66 23 -83 37 -24 21 -29 32 -29 71 0 117 133 241
259 242 47 0 57 -4 87 -34z m-418 -26 c3 -39 -49 -200 -103 -316 -79 -173
-216 -314 -305 -314 -16 0 -20 7 -20 30 0 47 26 88 75 119 l44 28 -25 37 c-42
61 -93 177 -104 236 -11 55 -6 120 11 152 21 40 105 62 128 34 7 -8 23 -69 36
-136 14 -67 30 -140 36 -163 l12 -42 24 70 c13 39 33 105 44 149 23 88 40 120
78 141 43 24 66 15 69 -25z m-1673 10 c-3 -5 -13 -10 -21 -10 -8 0 -12 5 -9
10 3 6 13 10 21 10 8 0 12 -4 9 -10z m1141 -44 c25 -25 34 -43 34 -67 0 -63
-63 -134 -112 -127 -21 3 -23 8 -23 70 0 37 -5 72 -11 78 -27 28 -80 -80 -63
-127 8 -22 16 -25 132 -54 115 -29 114 -127 -3 -232 -62 -56 -131 -81 -207
-75 -112 10 -131 100 -35 172 31 23 89 27 83 6 -11 -38 -12 -93 -3 -102 16
-16 72 44 72 76 0 31 -27 50 -98 66 -29 7 -66 23 -83 37 -24 21 -29 32 -29 71
0 117 133 241 259 242 47 0 57 -4 87 -34z m1817 4 c49 -58 58 -135 21 -188
-22 -31 -67 -29 -93 4 -41 52 -19 214 28 214 10 0 30 -13 44 -30z m-2303 -15
c39 -20 53 -49 45 -91 -5 -27 -3 -34 10 -34 11 0 15 -11 15 -47 1 -52 14 -163
25 -205 6 -23 2 -30 -31 -52 -40 -27 -82 -33 -114 -16 -21 11 -40 60 -40 103
l0 29 -40 -48 c-53 -65 -115 -112 -156 -120 -45 -8 -104 22 -127 67 -56 105
63 328 217 404 59 29 150 34 196 10z m-703 -60 c7 -20 -24 -55 -49 -55 -24 0
-33 23 -18 49 13 25 58 28 67 6z m2211 -65 c-3 -28 -8 -53 -11 -56 -7 -8 -77
34 -77 46 0 13 60 60 77 60 13 0 15 -9 11 -50z m-2123 -170 c7 -12 -87 -60
-118 -60 -29 0 -52 24 -44 44 8 21 150 35 162 16z m804 -14 c11 -12 8 -20 -23
-51 -20 -20 -40 -33 -45 -30 -12 7 -24 81 -16 96 9 14 64 4 84 -15z m1087 -1
c6 -16 -12 -45 -27 -45 -10 0 -12 44 -2 53 11 11 23 8 29 -8z m-950 -60 c6
-16 -12 -45 -27 -45 -10 0 -12 44 -2 53 11 11 23 8 29 -8z"/>
<path d="M5124 6235 c32 -60 68 -135 82 -167 14 -33 52 -118 86 -191 34 -73
128 -285 208 -472 l147 -339 59 -36 c32 -19 86 -50 118 -69 l59 -33 391 6
c215 3 677 9 1026 12 647 6 659 7 743 45 32 14 39 37 61 189 18 122 60 330
111 548 19 85 33 157 30 162 -2 4 -24 10 -47 13 -24 3 -144 23 -268 45 -124
22 -243 43 -265 46 -22 4 -80 14 -130 22 -355 59 -638 103 -890 140 -338 48
-394 56 -540 74 -75 9 -134 16 -330 41 -137 17 -507 56 -629 66 l-78 6 56
-108z m406 -65 c41 -5 131 -14 200 -20 69 -7 132 -14 140 -17 8 -3 38 -8 65
-9 28 -2 82 -8 120 -14 39 -5 95 -12 125 -15 30 -3 102 -13 160 -21 58 -8 119
-17 135 -19 17 -3 58 -7 93 -11 34 -4 62 -10 62 -13 0 -3 21 -6 48 -6 63 1 97
-5 82 -15 -7 -4 8 -6 33 -3 25 3 54 2 64 -2 10 -4 36 -9 58 -11 38 -3 150 -20
205 -30 24 -5 122 -18 222 -31 26 -3 45 -10 42 -15 -4 -6 9 -6 31 -2 30 5 36
4 30 -6 -5 -9 -4 -11 3 -6 11 6 202 -19 452 -60 52 -8 114 -18 138 -21 l42 -6
-6 -36 c-3 -20 -19 -96 -35 -168 -16 -73 -29 -142 -29 -154 0 -12 -11 -67 -24
-123 -14 -55 -27 -128 -31 -161 -9 -84 -12 -92 -43 -103 -18 -8 -244 -11 -687
-10 -363 0 -807 -2 -986 -6 l-326 -6 -34 23 c-19 12 -46 28 -61 34 -17 8 -26
18 -22 26 3 8 -2 17 -12 21 -14 5 -15 4 -4 -9 7 -8 8 -15 2 -15 -16 0 -27 20
-75 135 -25 61 -62 148 -82 195 -20 47 -43 103 -51 125 -8 22 -22 50 -30 63
-9 13 -13 30 -10 38 3 8 2 13 -3 10 -9 -6 -98 192 -93 206 1 5 -3 8 -9 8 -6 0
-8 7 -5 16 3 8 2 12 -4 9 -10 -6 -15 13 -12 50 2 14 0 16 -6 7 -6 -8 -16 5
-31 40 -13 29 -34 74 -47 100 -13 27 -24 50 -24 53 0 6 112 -1 230 -15z"/>
<path d="M7928 5823 c7 -3 16 -2 19 1 4 3 -2 6 -13 5 -11 0 -14 -3 -6 -6z"/>
<path d="M8005 5790 c-3 -5 -1 -10 4 -10 6 0 11 5 11 10 0 6 -2 10 -4 10 -3 0
-8 -4 -11 -10z"/>
<path d="M7730 3068 c-53 -105 -58 -133 -27 -152 25 -16 67 10 89 54 26 52 24
200 -3 200 -4 0 -31 -46 -59 -102z m66 -24 c-7 -52 -29 -99 -51 -107 -22 -9
-45 2 -45 22 0 21 47 121 68 144 15 16 16 16 25 1 5 -9 7 -36 3 -60z"/>
<path d="M4745 3019 c-61 -73 -90 -172 -65 -220 20 -37 50 -21 134 69 l29 31
-36 -6 c-42 -6 -42 -7 -22 40 18 45 19 78 2 101 -12 17 -15 16 -42 -15z"/>
<path d="M4272 5350 c-8 -13 -8 -20 -2 -20 6 0 13 7 17 15 9 24 -1 27 -15 5z"/>
<path d="M2270 5340 c-9 -6 -10 -10 -3 -10 6 0 15 5 18 10 8 12 4 12 -15 0z"/>
<path d="M1985 5291 c-3 -5 -2 -12 3 -15 5 -3 9 1 9 9 0 17 -3 19 -12 6z"/>
<path d="M3725 5283 c-443 -13 -1313 -72 -1752 -119 -63 -6 -103 -35 -103 -72
1 -69 24 -74 252 -57 106 8 208 17 226 19 26 4 33 2 28 -9 -3 -8 -1 -17 5 -20
5 -4 9 -3 8 2 -5 28 4 33 54 33 28 0 95 5 147 11 125 13 185 17 364 24 82 3
153 8 157 11 4 2 9 -1 11 -8 3 -7 9 -8 19 -3 7 5 31 10 52 11 21 1 100 5 175
8 76 4 180 9 232 13 52 3 120 5 150 4 30 -1 141 1 246 5 178 6 193 8 219 28
37 29 39 80 6 108 -21 16 -42 18 -215 16 -105 -1 -231 -3 -281 -5z"/>
<path d="M4200 5146 c0 -2 7 -7 16 -10 8 -3 12 -2 9 4 -6 10 -25 14 -25 6z"/>
<path d="M4138 5113 c7 -3 16 -2 19 1 4 3 -2 6 -13 5 -11 0 -14 -3 -6 -6z"/>
<path d="M4243 5035 c0 -8 4 -12 9 -9 5 3 6 10 3 15 -9 13 -12 11 -12 -6z"/>
<path d="M3810 4973 c-258 -5 -1029 -43 -1270 -63 l-235 -19 -28 -31 c-33 -37
-34 -54 -2 -85 28 -29 20 -29 255 -10 149 11 583 32 700 33 14 0 43 2 65 5 49
7 244 14 590 23 253 7 260 8 282 30 28 28 29 64 4 95 -21 27 -55 29 -361 22z"/>
<path d="M2385 4961 c-3 -5 -2 -12 3 -15 5 -3 9 1 9 9 0 17 -3 19 -12 6z"/>
<path d="M3270 4779 c0 -5 5 -7 10 -4 6 3 10 8 10 11 0 2 -4 4 -10 4 -5 0 -10
-5 -10 -11z"/>
<path d="M3308 4783 c7 -3 16 -2 19 1 4 3 -2 6 -13 5 -11 0 -14 -3 -6 -6z"/>
<path d="M4330 4760 c-6 -11 -8 -20 -6 -20 3 0 10 9 16 20 6 11 8 20 6 20 -3
0 -10 -9 -16 -20z"/>
<path d="M3185 4741 c-3 -5 -2 -12 3 -15 5 -3 9 1 9 9 0 17 -3 19 -12 6z"/>
<path d="M3390 4645 c-155 -8 -255 -17 -272 -25 -35 -16 -54 -60 -39 -89 24
-44 26 -44 575 -31 287 6 531 14 544 16 57 11 82 84 42 124 -19 19 -32 20
-312 19 -161 -1 -403 -7 -538 -14z"/>
<path d="M9135 3394 c-16 -8 -45 -29 -62 -46 l-33 -32 -61 32 c-65 34 -140 43
-180 22 -32 -18 -21 -30 12 -13 53 26 130 8 201 -49 l28 -22 44 46 c56 56 92
73 129 59 45 -17 38 -37 -56 -169 l-31 -42 41 -58 c22 -31 55 -79 74 -105 l34
-49 -33 -29 c-27 -24 -41 -29 -84 -29 -49 0 -54 2 -99 50 -42 45 -48 48 -60
33 -8 -9 -36 -34 -62 -55 -55 -43 -94 -49 -122 -18 -34 37 -23 67 56 146 l73
74 -18 32 c-39 68 -85 124 -118 142 -32 18 -31 17 13 -30 105 -112 112 -144
43 -201 -83 -69 -105 -130 -61 -171 41 -39 113 -25 166 32 32 34 46 33 92 -8
62 -57 146 -57 199 -1 30 32 24 52 -45 147 -30 42 -55 85 -55 96 0 11 20 50
45 86 49 74 58 118 26 136 -28 14 -61 12 -96 -6z"/>
<path d="M8383 3331 c-22 -16 -50 -43 -62 -60 -12 -17 -26 -31 -31 -31 -5 0
-14 18 -20 40 -21 79 -113 81 -161 3 -34 -55 -90 -233 -95 -303 -6 -73 6 -106
47 -129 40 -22 78 -6 137 57 43 46 54 54 62 42 5 -8 10 -22 10 -32 0 -21 56
-68 81 -68 33 0 61 19 120 83 59 65 79 68 79 14 1 -104 101 -184 183 -146 37
17 46 46 34 104 -5 28 -11 109 -12 180 -3 179 -2 173 -30 200 -36 37 -68 32
-124 -20 -26 -25 -51 -45 -55 -45 -3 0 -6 11 -6 25 0 14 -6 41 -14 60 -26 62
-80 72 -143 26z m112 -6 c29 -28 32 -68 10 -141 -8 -27 -15 -53 -15 -57 0 -4
34 31 76 78 42 47 80 85 84 85 5 0 15 3 24 6 9 3 26 -5 41 -20 25 -25 25 -28
25 -172 0 -81 5 -174 12 -207 12 -55 11 -60 -7 -73 -33 -24 -61 -27 -99 -9
-53 25 -76 70 -84 163 l-7 79 -73 -83 c-106 -122 -133 -134 -182 -81 -24 25
-25 66 -6 130 8 26 12 47 11 47 -2 0 -38 -44 -80 -99 -85 -111 -119 -134 -160
-107 -43 28 -50 80 -26 177 60 237 121 324 196 275 29 -19 31 -39 10 -120 -9
-33 -14 -61 -12 -63 2 -2 33 36 68 83 64 87 118 134 152 134 10 0 29 -11 42
-25z"/>
</g>
</svg>
